# WaveFront *.obj file (generated by Cinema 4D)

mtllib ./Cube_Pyramid_Duo.mtl

v 50.000000 -150.000000 50.000000
v 150.000000 -150.000000 50.000000
v 150.000000 -50.000000 50.000000
v 50.000000 -50.000000 50.000000
v 100.000000 -100.000000 150.000000
# 5 vertices

vn 0.000000 0.000000 -1.000000
vn 0.894427 0.000000 0.447214
vn 0.000000 0.894427 0.447214
vn -0.894427 0.000000 0.447214
vn 0.000000 -0.894427 0.447214
# 5 normals

vt 0.200000 0.500000 0.000000
vt 0.500000 0.800000 0.000000
vt 0.800000 0.500000 0.000000
vt 0.500000 0.200000 0.000000
vt 1.000000 1.000000 0.000000
vt 1.000000 0.000000 0.000000
vt 0.000000 0.000000 0.000000
vt 0.000000 1.000000 0.000000
# 8 texture coordinates

o Pyramid
usemtl default
f 4/4/1 3/3/1 2/2/1 1/1/1
f 2/2/2 3/3/2 5/5/2
f 3/3/3 4/4/3 5/6/3
f 4/4/4 1/1/4 5/7/4
f 1/1/5 2/2/5 5/8/5

v -150.000000 -150.000000 -150.000000
v -150.000000 -150.000000 -50.000000
v -50.000000 -150.000000 -150.000000
v -50.000000 -150.000000 -50.000000
v -50.000000 -50.000000 -150.000000
v -50.000000 -50.000000 -50.000000
v -150.000000 -50.000000 -150.000000
v -150.000000 -50.000000 -50.000000
# 8 vertices

vn 0.000000 -1.000000 0.000000
vn 1.000000 0.000000 0.000000
vn 0.000000 1.000000 0.000000
vn -1.000000 0.000000 0.000000
vn 0.000000 0.000000 1.000000
# 5 normals

# 0 texture coordinate

o Cube
usemtl default
f 8/6/6 9/5/6 7/8/6 6/7/6
f 10/6/7 11/5/7 9/8/7 8/7/7
f 12/6/8 13/5/8 11/8/8 10/7/8
f 6/6/9 7/5/9 13/8/9 12/7/9
f 9/6/10 11/5/10 13/8/10 7/7/10
f 10/6/1 8/5/1 6/8/1 12/7/1

