# WaveFront *.obj file (generated by Cinema 4D)

mtllib ./Float_Cubes.mtl

v -75.000000 -75.000000 -75.000000
v -75.000000 -75.000000 -25.000000
v -25.000000 -75.000000 -75.000000
v -25.000000 -75.000000 -25.000000
v -25.000000 -25.000000 -75.000000
v -25.000000 -25.000000 -25.000000
v -75.000000 -25.000000 -75.000000
v -75.000000 -25.000000 -25.000000
# 8 vertices

vn 0.000000 -1.000000 0.000000
vn 1.000000 0.000000 0.000000
vn 0.000000 1.000000 0.000000
vn -1.000000 0.000000 0.000000
vn 0.000000 0.000000 1.000000
vn 0.000000 0.000000 -1.000000
# 6 normals

vt 0.000000 0.000000 0.000000
vt 0.000000 1.000000 0.000000
vt 1.000000 1.000000 0.000000
vt 1.000000 0.000000 0.000000
# 4 texture coordinates

o Cube.1
usemtl default
f 3/4/1 4/3/1 2/2/1 1/1/1
f 5/4/2 6/3/2 4/2/2 3/1/2
f 7/4/3 8/3/3 6/2/3 5/1/3
f 1/4/4 2/3/4 8/2/4 7/1/4
f 4/4/5 6/3/5 8/2/5 2/1/5
f 5/4/6 3/3/6 1/2/6 7/1/6

v 50.000000 50.000000 50.000000
v 50.000000 50.000000 150.000000
v 150.000000 50.000000 50.000000
v 150.000000 50.000000 150.000000
v 150.000000 150.000000 50.000000
v 150.000000 150.000000 150.000000
v 50.000000 150.000000 50.000000
v 50.000000 150.000000 150.000000
# 8 vertices

# 0 normal

# 0 texture coordinate

o Cube
usemtl default
f 11/4/1 12/3/1 10/2/1 9/1/1
f 13/4/2 14/3/2 12/2/2 11/1/2
f 15/4/3 16/3/3 14/2/3 13/1/3
f 9/4/4 10/3/4 16/2/4 15/1/4
f 12/4/5 14/3/5 16/2/5 10/1/5
f 13/4/6 11/3/6 9/2/6 15/1/6

